# xmcd
#
# Track frame offsets:
#	150
#	14905
#	28172
#	41024
#	53401
#	67594
#	79859
#	94676
#	104772
#	117848
#	129519
#	144561
#	158554
#	169798
#	179938
#	195487
#	207530
#
# Disc length: 2925 seconds
#
# Revision: 1
# Processed by: cddbd v1.5.2PL0 Copyright (c) Steve Scherf et al.
# Submitted via: audiograbber 1.83.01
#
DISCID=f00b6b11
DTITLE=Various Artist - CB 60'S COUNTRY 5084-02
DYEAR=1900
DGENRE=Country
TTITLE0=JOHNNIE CASH - ORANGE BLOSSOM SPECIAL
TTITLE1=HAWKSHAW HAWKINS - LONSOME 7-7203
TTITLE2=MERLE HAGGARD - (MY FRIENDS ARE GONNA BE) STRANGERS
TTITLE3=BUCK OWENS - MY HEART SKIPS A BEAT
TTITLE4=JOHNNY HORTON - NORTH TO ALASKA
TTITLE5=MARTY ROBBINS - RIBBON OF DARKNESS
TTITLE6=STONEWALL JACKSON - B.J. THE D.J.
TTITLE7=GEORGE JONES - THE RACE IS ON
TTITLE8=JIM REEVES - BLUE SIDE OF LONESOME
TTITLE9=BUCK OWENS - WAITIN' IN YOUR WELFARE LINE
TTITLE10=JEANIE SEELY - DON'T TOUCH ME
TTITLE11=DEL REEVES - GIRL ON THE BILLBOARD
TTITLE12=WARNER MACK - THE BRIDGE WASHED OUT
TTITLE13=TAMMY WYNETTE - YOUR GOOD GIRL'S GONNA GO BAD
TTITLE14=DAVID HOUSTON - ALMOST PERSUADED
TTITLE15=JACK GREENE - THERE GOES MY EVERYTHING
TTITLE16=PORTER WAGONER - I'LL GO DOWN SWINGING
EXTD=
EXTT0=
EXTT1=
EXTT2=
EXTT3=
EXTT4=
EXTT5=
EXTT6=
EXTT7=
EXTT8=
EXTT9=
EXTT10=
EXTT11=
EXTT12=
EXTT13=
EXTT14=
EXTT15=
EXTT16=
PLAYORDER=
